<?xml version="1.0" encoding="UTF-8" standalone="no"?>
<!DOCTYPE svg PUBLIC "-//W3C//DTD SVG 1.1//EN" "http://www.w3.org/Graphics/SVG/1.1/DTD/svg11.dtd">
<svg version="1.1" xmlns="http://www.w3.org/2000/svg" xmlns:xlink="http://www.w3.org/1999/xlink" preserveAspectRatio="xMidYMid meet" viewBox="0 0 640 640" width="640" height="640"><defs><path d="M309.03 74.71C337.86 74.71 361.22 98.08 361.22 126.91C361.22 153.27 361.22 217.31 361.22 252.95C361.22 256.13 358.65 258.7 355.47 258.7C296.38 258.7 124.87 258.7 65.78 258.7C62.6 258.7 60.03 256.13 60.03 252.95C60.03 217.31 60.03 151.73 60.03 124.98C60.03 97.22 82.53 74.71 110.3 74.71C160.48 74.71 259.23 74.71 309.03 74.71Z" id="alNhGuTn7"></path><path d="M608.83 111.38C617.95 111.38 625.34 118.78 625.34 127.9C625.34 230.32 625.34 521.06 625.34 623.48C625.34 632.6 617.95 640 608.83 640C487.06 640 138.28 640 16.52 640C7.4 640 0 632.6 0 623.48C0 521.06 0 230.32 0 127.9C0 118.78 7.4 111.38 16.52 111.38C138.28 111.38 487.06 111.38 608.83 111.38Z" id="c1Hk1cHEXk"></path><path d="M625.97 151.02L626.59 151.08L627.2 151.17L627.8 151.28L628.39 151.42L628.97 151.57L629.55 151.75L630.11 151.95L630.67 152.17L631.21 152.41L631.74 152.68L632.26 152.96L632.77 153.26L633.26 153.58L633.74 153.92L634.21 154.28L634.66 154.65L635.1 155.04L635.52 155.45L635.93 155.87L636.32 156.31L636.7 156.76L637.05 157.23L637.39 157.71L637.71 158.2L638.01 158.71L638.29 159.23L638.56 159.76L638.8 160.3L639.02 160.86L639.22 161.42L639.4 162L639.56 162.58L639.69 163.17L639.8 163.77L639.89 164.38L639.95 165L639.99 165.62L640 166.25L640 624.72L639.99 625.35L639.95 625.97L639.89 626.59L639.8 627.2L639.69 627.8L639.56 628.39L639.4 628.97L639.22 629.55L639.02 630.11L638.8 630.67L638.56 631.21L638.29 631.74L638.01 632.26L637.71 632.77L637.39 633.26L637.05 633.74L636.7 634.21L636.32 634.66L635.93 635.1L635.52 635.52L635.1 635.93L634.66 636.32L634.21 636.7L633.74 637.05L633.26 637.39L632.77 637.71L632.26 638.01L631.74 638.29L631.21 638.56L630.67 638.8L630.11 639.02L629.55 639.22L628.97 639.4L628.39 639.56L627.8 639.69L627.2 639.8L626.59 639.89L625.97 639.95L625.35 639.99L624.72 640L272.29 640L265.28 636.02L249.1 626.1L233.57 615.82L218.7 605.2L204.52 594.23L191.05 582.95L178.31 571.35L166.31 559.44L155.08 547.25L144.64 534.78L135 522.04L126.18 509.05L118.21 495.81L111.1 482.34L104.88 468.65L99.56 454.75L95.17 440.66L91.71 426.38L89.22 411.92L87.71 397.3L87.21 382.53L87.71 367.76L89.22 353.14L91.71 338.68L95.17 324.4L99.56 310.3L104.88 296.4L111.1 282.72L118.21 269.25L126.18 256.01L135 243.02L144.64 230.28L155.08 217.81L166.31 205.61L178.31 193.71L191.05 182.11L204.52 170.82L218.7 159.86L231.14 150.97L624.72 150.97L625.35 150.98L625.97 151.02Z" id="d2oQd0PN4p"></path><path d="M134.59 93.79L245.99 93.79L245.99 117.24L134.59 117.24L134.59 93.79Z" id="d1BPT3qz7t"></path><path d="M255.43 93.79L268.65 93.79L268.65 117.24L255.43 117.24L255.43 93.79Z" id="ahsVcNH6q"></path></defs><g><g><g><use xlink:href="#alNhGuTn7" opacity="1" fill="#aabc9d" fill-opacity="1"></use></g><g><use xlink:href="#c1Hk1cHEXk" opacity="1" fill="#aabc9d" fill-opacity="1"></use></g><g><use xlink:href="#d2oQd0PN4p" opacity="1" fill="#d4eac4" fill-opacity="1"></use></g><g><use xlink:href="#d1BPT3qz7t" opacity="1" fill="#3353a1" fill-opacity="1"></use></g><g><use xlink:href="#ahsVcNH6q" opacity="1" fill="#3353a1" fill-opacity="1"></use></g></g></g></svg>