<?xml version="1.0" encoding="UTF-8" standalone="no"?>
<!DOCTYPE svg PUBLIC "-//W3C//DTD SVG 1.1//EN" "http://www.w3.org/Graphics/SVG/1.1/DTD/svg11.dtd">
<svg version="1.1" xmlns="http://www.w3.org/2000/svg" xmlns:xlink="http://www.w3.org/1999/xlink" preserveAspectRatio="xMidYMid meet" viewBox="0 0 640 640" width="640" height="640"><defs><path d="M610.06 75.49C618.5 75.49 625.34 82.33 625.34 90.77C625.34 185.52 625.34 454.48 625.34 549.23C625.34 557.67 618.5 564.51 610.06 564.51C488.05 564.51 137.29 564.51 15.28 564.51C6.84 564.51 0 557.67 0 549.23C0 454.48 0 185.52 0 90.77C0 82.33 6.84 75.49 15.28 75.49C137.29 75.49 488.05 75.49 610.06 75.49Z" id="a34TydiH8"></path><path d="M625.97 75.54L626.59 75.6L627.2 75.69L627.8 75.8L628.39 75.93L628.97 76.09L629.55 76.26L630.11 76.46L630.67 76.69L631.21 76.93L631.74 77.19L632.26 77.47L632.77 77.78L633.26 78.1L633.74 78.43L634.21 78.79L634.66 79.16L635.1 79.55L635.52 79.96L635.93 80.38L636.32 80.82L636.7 81.28L637.05 81.74L637.39 82.22L637.71 82.72L638.01 83.22L638.29 83.74L638.56 84.28L638.8 84.82L639.02 85.37L639.22 85.94L639.4 86.51L639.56 87.1L639.69 87.69L639.8 88.29L639.89 88.9L639.95 89.51L639.99 90.14L640 90.77L640 549.23L639.99 549.86L639.95 550.49L639.89 551.1L639.8 551.71L639.69 552.31L639.56 552.9L639.4 553.49L639.22 554.06L639.02 554.63L638.8 555.18L638.56 555.72L638.29 556.26L638.01 556.78L637.71 557.28L637.39 557.78L637.05 558.26L636.7 558.72L636.32 559.18L635.93 559.62L635.52 560.04L635.1 560.45L634.66 560.84L634.21 561.21L633.74 561.57L633.26 561.9L632.77 562.22L632.26 562.53L631.74 562.81L631.21 563.07L630.67 563.31L630.11 563.54L629.55 563.74L628.97 563.91L628.39 564.07L627.8 564.2L627.2 564.31L626.59 564.4L625.97 564.46L625.35 564.5L624.72 564.51L272.29 564.51L265.28 560.54L249.1 550.62L233.57 540.34L218.7 529.71L204.52 518.75L191.05 507.46L178.31 495.86L166.31 483.96L155.08 471.77L144.64 459.29L135 446.56L126.18 433.56L118.21 420.33L111.1 406.86L104.88 393.17L99.56 379.27L95.17 365.17L91.71 350.89L89.22 336.43L87.71 321.81L87.21 307.04L87.71 292.27L89.22 277.65L91.71 263.2L95.17 248.91L99.56 234.82L104.88 220.92L111.1 207.23L118.21 193.76L126.18 180.52L135 167.53L144.64 154.79L155.08 142.32L166.31 130.13L178.31 118.23L191.05 106.63L204.52 95.34L218.7 84.37L231.14 75.49L624.72 75.49L625.35 75.5L625.97 75.54Z" id="bQIeMkHOb"></path><path d="M23.58 82.27L35.69 91.33L18.85 111.83L6.74 102.78L23.58 82.27Z" id="c4TOoyeF6"></path><path d="M42.32 96.29L54.44 105.34L37.6 125.84L25.48 116.79L42.32 96.29Z" id="ak3bWUhS"></path><path d="M62.32 111.23L74.44 120.29L57.6 140.79L45.48 131.73L62.32 111.23Z" id="hBgeIqas7"></path><path d="M81.07 125.24L93.18 134.3L76.35 154.8L64.23 145.74L81.07 125.24Z" id="a3K4uFIjDj"></path><path d="M99.87 139.29L111.98 148.35L95.14 168.85L83.03 159.79L99.87 139.29Z" id="aVC086Fp"></path><path d="M118.62 153.3L130.73 162.36L113.89 182.86L101.78 173.8L118.62 153.3Z" id="b394dIilUc"></path><path d="M138.61 168.25L150.73 177.3L133.89 197.8L121.78 188.75L138.61 168.25Z" id="cQ0mOtvp8"></path><path d="M157.36 182.26L169.48 191.31L152.64 211.81L140.52 202.76L157.36 182.26Z" id="b1vudbfKOg"></path><path d="M178.05 197.72L190.16 206.77L173.32 227.27L161.21 218.22L178.05 197.72Z" id="agekxm7n0"></path><path d="M196.79 211.73L208.91 220.78L192.07 241.28L179.96 232.23L196.79 211.73Z" id="a1Mlh9uaeM"></path><path d="M216.79 226.68L228.91 235.73L212.07 256.23L199.95 247.18L216.79 226.68Z" id="f5J5rGTwTV"></path><path d="M235.54 240.69L247.66 249.74L230.82 270.24L218.7 261.19L235.54 240.69Z" id="c3zd0gshAV"></path><path d="M254.34 254.74L266.45 263.79L249.61 284.29L237.5 275.24L254.34 254.74Z" id="a5vBeqKcEy"></path><path d="M273.09 268.75L285.2 277.8L268.36 298.3L256.25 289.25L273.09 268.75Z" id="d94gW2afc1"></path><path d="M293.08 283.69L305.2 292.75L288.36 313.25L276.25 304.19L293.08 283.69Z" id="bPuv63yFI"></path><path d="M311.83 297.7L323.95 306.76L307.11 327.26L294.99 318.2L311.83 297.7Z" id="b4kDMkWXvi"></path><path d="M331.71 312.56L343.82 321.61L326.98 342.11L314.87 333.06L331.71 312.56Z" id="ayKhhd8m1"></path><path d="M350.46 326.57L362.57 335.62L345.73 356.12L333.62 347.07L350.46 326.57Z" id="bypcsy4Qc"></path><path d="M370.46 341.51L382.57 350.57L365.73 371.07L353.62 362.02L370.46 341.51Z" id="a6IoQJ"></path><path d="M389.2 355.53L401.32 364.58L384.48 385.08L372.36 376.03L389.2 355.53Z" id="a1By7vfX0W"></path><path d="M408 369.57L420.12 378.63L403.28 399.13L391.16 390.08L408 369.57Z" id="a5mKTBnTj7"></path><path d="M426.75 383.59L438.86 392.64L422.03 413.14L409.91 404.09L426.75 383.59Z" id="aavr9wUnw3"></path><path d="M446.75 398.53L458.86 407.59L442.02 428.09L429.91 419.03L446.75 398.53Z" id="agdR5PAsx"></path><path d="M465.5 412.54L477.61 421.6L460.77 442.1L448.66 433.04L465.5 412.54Z" id="e1D7zAys40"></path><path d="M486.18 428L498.29 437.06L481.46 457.56L469.34 448.5L486.18 428Z" id="b4Y7jLHYQy"></path><path d="M504.93 442.01L517.04 451.07L500.2 471.57L488.09 462.51L504.93 442.01Z" id="a17jv8aNDQ"></path><path d="M524.93 456.96L537.04 466.01L520.2 486.51L508.09 477.46L524.93 456.96Z" id="e4552WttHk"></path><path d="M543.67 470.97L555.79 480.02L538.95 500.53L526.84 491.47L543.67 470.97Z" id="b3s4SiFXmn"></path><path d="M562.47 485.02L574.59 494.07L557.75 514.57L545.63 505.52L562.47 485.02Z" id="d1pqGEv4"></path><path d="M581.22 499.03L593.33 508.08L576.5 528.58L564.38 519.53L581.22 499.03Z" id="a1zyEpMSlF"></path><path d="M601.22 513.98L613.33 523.03L596.49 543.53L584.38 534.48L601.22 513.98Z" id="a9nTta4o"></path><path d="M619.97 527.99L632.08 537.04L615.24 557.54L603.13 548.49L619.97 527.99Z" id="erPyadxU"></path><path d="M525.64 300.39C536.53 308.53 538.42 324.12 529.79 334.63C518.02 348.95 498.56 372.65 486.79 386.98C477.92 397.77 462.14 399.69 450.95 391.33C444.94 386.84 446.92 388.32 440.92 383.83C430.03 375.69 428.14 360.11 436.77 349.6C448.54 335.27 468 311.57 479.77 297.24C488.64 286.45 504.42 284.54 515.61 292.9C521.61 297.39 519.63 295.91 525.64 300.39Z" id="aOlY5lbFi"></path><path d="M521.12 324.06C521.12 337.12 510.52 347.73 497.45 347.73C484.39 347.73 473.79 337.12 473.79 324.06C473.79 311 484.39 300.39 497.45 300.39C510.52 300.39 521.12 311 521.12 324.06Z" id="d1H5S9pskK"></path><path d="M480.91 360.31C480.91 366.84 475.6 372.15 469.06 372.15C462.53 372.15 457.22 366.84 457.22 360.31C457.22 353.77 462.53 348.46 469.06 348.46C475.6 348.46 480.91 353.77 480.91 360.31Z" id="b8Ng32izt"></path><path d="M235.89 491.04C242.39 491.04 247.66 496.31 247.66 502.81C247.66 505.16 247.66 500.46 247.66 502.81C247.66 509.31 242.39 514.57 235.89 514.57C197.15 514.57 92.68 514.57 53.93 514.57C47.43 514.57 42.17 509.31 42.17 502.81C42.17 500.46 42.17 505.16 42.17 502.81C42.17 496.31 47.43 491.04 53.93 491.04C92.68 491.04 197.15 491.04 235.89 491.04Z" id="dm1sMXxWx"></path><path d="M42.17 528.58L173.83 528.58L173.83 548.19L42.17 548.19L42.17 528.58Z" id="bxzp90hYK"></path></defs><g><g><g><use xlink:href="#a34TydiH8" opacity="1" fill="#aabc9d" fill-opacity="1"></use></g><g><use xlink:href="#bQIeMkHOb" opacity="1" fill="#d4eac4" fill-opacity="1"></use></g><g><use xlink:href="#c4TOoyeF6" opacity="1" fill="#3353a1" fill-opacity="1"></use></g><g><use xlink:href="#ak3bWUhS" opacity="1" fill="#3353a1" fill-opacity="1"></use></g><g><use xlink:href="#hBgeIqas7" opacity="1" fill="#3353a1" fill-opacity="1"></use></g><g><use xlink:href="#a3K4uFIjDj" opacity="1" fill="#3353a1" fill-opacity="1"></use></g><g><use xlink:href="#aVC086Fp" opacity="1" fill="#3353a1" fill-opacity="1"></use></g><g><use xlink:href="#b394dIilUc" opacity="1" fill="#3353a1" fill-opacity="1"></use></g><g><use xlink:href="#cQ0mOtvp8" opacity="1" fill="#3353a1" fill-opacity="1"></use></g><g><use xlink:href="#b1vudbfKOg" opacity="1" fill="#3353a1" fill-opacity="1"></use></g><g><use xlink:href="#agekxm7n0" opacity="1" fill="#3353a1" fill-opacity="1"></use></g><g><use xlink:href="#a1Mlh9uaeM" opacity="1" fill="#3353a1" fill-opacity="1"></use></g><g><use xlink:href="#f5J5rGTwTV" opacity="1" fill="#3353a1" fill-opacity="1"></use></g><g><use xlink:href="#c3zd0gshAV" opacity="1" fill="#3353a1" fill-opacity="1"></use></g><g><use xlink:href="#a5vBeqKcEy" opacity="1" fill="#3353a1" fill-opacity="1"></use></g><g><use xlink:href="#d94gW2afc1" opacity="1" fill="#3353a1" fill-opacity="1"></use></g><g><use xlink:href="#bPuv63yFI" opacity="1" fill="#3353a1" fill-opacity="1"></use></g><g><use xlink:href="#b4kDMkWXvi" opacity="1" fill="#3353a1" fill-opacity="1"></use></g><g><use xlink:href="#ayKhhd8m1" opacity="1" fill="#3353a1" fill-opacity="1"></use></g><g><use xlink:href="#bypcsy4Qc" opacity="1" fill="#3353a1" fill-opacity="1"></use></g><g><use xlink:href="#a6IoQJ" opacity="1" fill="#3353a1" fill-opacity="1"></use></g><g><use xlink:href="#a1By7vfX0W" opacity="1" fill="#3353a1" fill-opacity="1"></use></g><g><use xlink:href="#a5mKTBnTj7" opacity="1" fill="#3353a1" fill-opacity="1"></use></g><g><use xlink:href="#aavr9wUnw3" opacity="1" fill="#3353a1" fill-opacity="1"></use></g><g><use xlink:href="#agdR5PAsx" opacity="1" fill="#3353a1" fill-opacity="1"></use></g><g><use xlink:href="#e1D7zAys40" opacity="1" fill="#3353a1" fill-opacity="1"></use></g><g><use xlink:href="#b4Y7jLHYQy" opacity="1" fill="#3353a1" fill-opacity="1"></use></g><g><use xlink:href="#a17jv8aNDQ" opacity="1" fill="#3353a1" fill-opacity="1"></use></g><g><use xlink:href="#e4552WttHk" opacity="1" fill="#3353a1" fill-opacity="1"></use></g><g><use xlink:href="#b3s4SiFXmn" opacity="1" fill="#3353a1" fill-opacity="1"></use></g><g><use xlink:href="#d1pqGEv4" opacity="1" fill="#3353a1" fill-opacity="1"></use></g><g><use xlink:href="#a1zyEpMSlF" opacity="1" fill="#3353a1" fill-opacity="1"></use></g><g><use xlink:href="#a9nTta4o" opacity="1" fill="#3353a1" fill-opacity="1"></use></g><g><use xlink:href="#erPyadxU" opacity="1" fill="#3353a1" fill-opacity="1"></use></g><g><g><use xlink:href="#aOlY5lbFi" opacity="1" fill="#3353a1" fill-opacity="1"></use></g><g><use xlink:href="#d1H5S9pskK" opacity="1" fill="#d4eac4" fill-opacity="1"></use></g><g><use xlink:href="#b8Ng32izt" opacity="1" fill="#d4eac4" fill-opacity="1"></use></g></g><g><use xlink:href="#dm1sMXxWx" opacity="1" fill="#3353a1" fill-opacity="1"></use></g><g><use xlink:href="#bxzp90hYK" opacity="1" fill="#3353a1" fill-opacity="1"></use></g></g></g></svg>