<?xml version="1.0" encoding="UTF-8" standalone="no"?>
<!DOCTYPE svg PUBLIC "-//W3C//DTD SVG 1.1//EN" "http://www.w3.org/Graphics/SVG/1.1/DTD/svg11.dtd">
<svg version="1.1" xmlns="http://www.w3.org/2000/svg" xmlns:xlink="http://www.w3.org/1999/xlink" preserveAspectRatio="xMidYMid meet" viewBox="0 0 640 640" width="640" height="640"><defs><path d="M548.85 0C559.02 0 567.26 8.24 567.26 18.41C567.26 142.73 567.26 497.27 567.26 621.59C567.26 631.76 559.02 640 548.85 640C453.63 640 186.37 640 91.15 640C80.98 640 72.74 631.76 72.74 621.59C72.74 497.27 72.74 142.73 72.74 18.41C72.74 8.24 80.98 0 91.15 0C186.37 0 453.63 0 548.85 0Z" id="bnc7REnQa"></path><path d="M284.97 599.91L284.97 555.5L303.22 537.1L391.36 537.1L329.04 599.91L284.97 599.91Z" id="auLeDVtGg"></path><path d="M284.97 555.5L476.79 362.17L520.86 406.58L329.04 599.91L284.97 555.5Z" id="e1JmWmXEl"></path><path d="M314.08 529.75L520.86 529.75L520.86 599.91L314.08 599.91L314.08 529.75Z" id="fvu4eYrS"></path><path d="M540.72 619.93L496.65 619.93L422.78 545.47L422.78 545.47L466.84 501.06L540.72 575.52L540.72 619.93Z" id="ajRY93Hw"></path><path d="M452.29 475.68L408.22 431.26L482.1 356.8L526.16 356.8L526.16 401.22L452.29 475.68Z" id="a5Ywm4Se"></path><path d="M324.69 446.62L476.79 599.91L520.86 555.5L368.76 402.21L324.69 446.62Z" id="c2BqhFlMrn"></path><path d="M353.07 475.68L279.19 401.22L279.19 356.8L323.26 356.8L397.14 431.26L353.07 475.68Z" id="k1tmLATdK2"></path><path d="M331.62 400.2L424.79 494.1L396.35 494.1L303.18 400.2L303.18 400.2L331.62 400.2Z" id="bq1kqGi2j"></path><path d="M399.64 468.88L492.81 562.78L464.37 562.78L371.2 468.88L371.2 468.88L399.64 468.88Z" id="b34OV0riX"></path><path d="M104.04 30.95L245.75 30.95L245.75 49.16L104.04 49.16L104.04 30.95Z" id="c1IPpd77dd"></path><path d="M104.04 56.12L245.75 56.12L245.75 74.34L104.04 74.34L104.04 56.12Z" id="b1LIKQ3Gb"></path><path d="M104.04 81.3L245.75 81.3L245.75 99.52L104.04 99.52L104.04 81.3Z" id="h2wBwkHfyu"></path><path d="M251.45 30.95L393.16 30.95L393.16 49.16L251.45 49.16L251.45 30.95Z" id="b4TT1i3fC"></path><path d="M251.45 56.12L393.16 56.12L393.16 74.34L251.45 74.34L251.45 56.12Z" id="a46cjvx3Xp"></path><path d="M251.45 81.3L393.16 81.3L393.16 99.52L251.45 99.52L251.45 81.3Z" id="d4XYJuCOdo"></path><path d="M399.01 30.95L540.72 30.95L540.72 49.16L399.01 49.16L399.01 30.95Z" id="d1r7HZF8hn"></path><path d="M399.01 56.12L540.72 56.12L540.72 74.34L399.01 74.34L399.01 56.12Z" id="a5CpH5PLnl"></path><path d="M399.01 81.3L540.72 81.3L540.72 99.52L399.01 99.52L399.01 81.3Z" id="ceJL5nPdW"></path><path d="M103.97 105.52L245.68 105.52L245.68 123.74L103.97 123.74L103.97 105.52Z" id="b15aWE8eSE"></path><path d="M103.97 130.7L245.68 130.7L245.68 148.91L103.97 148.91L103.97 130.7Z" id="g3nYeBZ2uW"></path><path d="M103.97 155.88L245.68 155.88L245.68 174.09L103.97 174.09L103.97 155.88Z" id="f1bGBBaT9A"></path><path d="M251.38 105.52L393.09 105.52L393.09 123.74L251.38 123.74L251.38 105.52Z" id="b685a8atUa"></path><path d="M251.38 130.7L393.09 130.7L393.09 148.91L251.38 148.91L251.38 130.7Z" id="a3Tbq4cRJM"></path><path d="M251.38 155.88L393.09 155.88L393.09 174.09L251.38 174.09L251.38 155.88Z" id="a17dYAfrU"></path><path d="M398.93 105.52L540.65 105.52L540.65 123.74L398.93 123.74L398.93 105.52Z" id="a20bfcDLhG"></path><path d="M398.93 130.7L540.65 130.7L540.65 148.91L398.93 148.91L398.93 130.7Z" id="d4VKFwcly"></path><path d="M398.93 155.88L540.65 155.88L540.65 174.09L398.93 174.09L398.93 155.88Z" id="a1ARHnliit"></path><path d="M104 181.89L245.72 181.89L245.72 200.11L104 200.11L104 181.89Z" id="c71clrTriV"></path><path d="M104 207.07L245.72 207.07L245.72 225.29L104 225.29L104 207.07Z" id="d4eVA3L8cS"></path><path d="M104 232.25L245.72 232.25L245.72 250.47L104 250.47L104 232.25Z" id="d1vt4ZfxuH"></path><path d="M251.41 181.89L393.13 181.89L393.13 200.11L251.41 200.11L251.41 181.89Z" id="d4mvY8o1b"></path><path d="M251.41 207.07L393.13 207.07L393.13 225.29L251.41 225.29L251.41 207.07Z" id="cCTdhWth"></path><path d="M251.41 232.25L393.13 232.25L393.13 250.47L251.41 250.47L251.41 232.25Z" id="f18j7Z1QqD"></path><path d="M398.97 181.89L540.68 181.89L540.68 200.11L398.97 200.11L398.97 181.89Z" id="d2TN3vEP4p"></path><path d="M398.97 207.07L540.68 207.07L540.68 225.29L398.97 225.29L398.97 207.07Z" id="f1BZS489aI"></path><path d="M398.97 232.25L540.68 232.25L540.68 250.47L398.97 250.47L398.97 232.25Z" id="a4lP1bgqT2"></path><path d="M103.93 256.47L245.64 256.47L245.64 274.68L103.93 274.68L103.93 256.47Z" id="e1jhVYoALV"></path><path d="M103.93 281.65L245.64 281.65L245.64 299.86L103.93 299.86L103.93 281.65Z" id="boK9nINfb"></path><path d="M103.93 306.83L245.64 306.83L245.64 325.04L103.93 325.04L103.93 306.83Z" id="a20tP8JkvN"></path><path d="M251.34 256.47L393.06 256.47L393.06 274.68L251.34 274.68L251.34 256.47Z" id="i1UZGQdBHH"></path><path d="M251.34 281.65L393.06 281.65L393.06 299.86L251.34 299.86L251.34 281.65Z" id="crovTD4Je"></path><path d="M251.34 306.83L393.06 306.83L393.06 325.04L251.34 325.04L251.34 306.83Z" id="a2jOEEKFaf"></path><path d="M398.9 256.47L540.61 256.47L540.61 274.68L398.9 274.68L398.9 256.47Z" id="agQQGS2W3"></path><path d="M398.9 281.65L540.61 281.65L540.61 299.86L398.9 299.86L398.9 281.65Z" id="l60l9PBfmu"></path><path d="M398.9 306.83L540.61 306.83L540.61 325.04L398.9 325.04L398.9 306.83Z" id="b2fG46zpw"></path><path d="M104.15 331.63L245.86 331.63L245.86 349.84L104.15 349.84L104.15 331.63Z" id="b1W2zHTpaR"></path><path d="M104.15 356.8L245.86 356.8L245.86 375.02L104.15 375.02L104.15 356.8Z" id="dZjoXabGj"></path><path d="M104.15 381.98L245.86 381.98L245.86 400.2L104.15 400.2L104.15 381.98Z" id="g3JiF4i4Bj"></path><path d="M104.08 406.2L245.79 406.2L245.79 424.42L104.08 424.42L104.08 406.2Z" id="cF7jVmhVg"></path><path d="M104.08 431.38L245.79 431.38L245.79 449.59L104.08 449.59L104.08 431.38Z" id="k44b3QXabW"></path><path d="M104.08 456.56L245.79 456.56L245.79 474.77L104.08 474.77L104.08 456.56Z" id="j3watqNdwq"></path><path d="M104.11 482.57L245.83 482.57L245.83 500.79L104.11 500.79L104.11 482.57Z" id="a4XRGtVN4N"></path><path d="M104.11 507.75L245.83 507.75L245.83 525.97L104.11 525.97L104.11 507.75Z" id="c3lq0VwbUt"></path><path d="M104.11 532.93L245.83 532.93L245.83 551.15L104.11 551.15L104.11 532.93Z" id="cvO8HoZ3j"></path><path d="M104.04 557.15L245.75 557.15L245.75 575.36L104.04 575.36L104.04 557.15Z" id="a2egJ52Te6"></path><path d="M104.04 582.33L245.75 582.33L245.75 600.54L104.04 600.54L104.04 582.33Z" id="j2jnsKB2YK"></path><path d="M424.55 494.1L517.72 588.01L489.28 588.01L396.11 494.1L396.11 494.1L424.55 494.1Z" id="arlSWQdtv"></path><path d="M104.04 607.51L245.75 607.51L245.75 625.72L104.04 625.72L104.04 607.51Z" id="b5sT319meV"></path></defs><g><g><g><use xlink:href="#bnc7REnQa" opacity="1" fill="#d4eac4" fill-opacity="1"></use></g><g><use xlink:href="#auLeDVtGg" opacity="1" fill="#3353a1" fill-opacity="1"></use></g><g><use xlink:href="#e1JmWmXEl" opacity="1" fill="#3353a1" fill-opacity="1"></use></g><g><use xlink:href="#fvu4eYrS" opacity="1" fill="#3353a1" fill-opacity="1"></use></g><g><use xlink:href="#ajRY93Hw" opacity="1" fill="#3353a1" fill-opacity="1"></use></g><g><use xlink:href="#a5Ywm4Se" opacity="1" fill="#3353a1" fill-opacity="1"></use></g><g><use xlink:href="#c2BqhFlMrn" opacity="1" fill="#3353a1" fill-opacity="1"></use></g><g><use xlink:href="#k1tmLATdK2" opacity="1" fill="#3353a1" fill-opacity="1"></use></g><g><use xlink:href="#bq1kqGi2j" opacity="1" fill="#d4eac4" fill-opacity="1"></use></g><g><use xlink:href="#b34OV0riX" opacity="1" fill="#d4eac4" fill-opacity="1"></use></g><g><use xlink:href="#c1IPpd77dd" opacity="1" fill="#3353a1" fill-opacity="1"></use></g><g><use xlink:href="#b1LIKQ3Gb" opacity="1" fill="#3353a1" fill-opacity="1"></use></g><g><use xlink:href="#h2wBwkHfyu" opacity="1" fill="#3353a1" fill-opacity="1"></use></g><g><use xlink:href="#b4TT1i3fC" opacity="1" fill="#3353a1" fill-opacity="1"></use></g><g><use xlink:href="#a46cjvx3Xp" opacity="1" fill="#3353a1" fill-opacity="1"></use></g><g><use xlink:href="#d4XYJuCOdo" opacity="1" fill="#3353a1" fill-opacity="1"></use></g><g><use xlink:href="#d1r7HZF8hn" opacity="1" fill="#3353a1" fill-opacity="1"></use></g><g><use xlink:href="#a5CpH5PLnl" opacity="1" fill="#3353a1" fill-opacity="1"></use></g><g><use xlink:href="#ceJL5nPdW" opacity="1" fill="#3353a1" fill-opacity="1"></use></g><g><use xlink:href="#b15aWE8eSE" opacity="1" fill="#3353a1" fill-opacity="1"></use></g><g><use xlink:href="#g3nYeBZ2uW" opacity="1" fill="#3353a1" fill-opacity="1"></use></g><g><use xlink:href="#f1bGBBaT9A" opacity="1" fill="#3353a1" fill-opacity="1"></use></g><g><use xlink:href="#b685a8atUa" opacity="1" fill="#3353a1" fill-opacity="1"></use></g><g><use xlink:href="#a3Tbq4cRJM" opacity="1" fill="#3353a1" fill-opacity="1"></use></g><g><use xlink:href="#a17dYAfrU" opacity="1" fill="#3353a1" fill-opacity="1"></use></g><g><use xlink:href="#a20bfcDLhG" opacity="1" fill="#3353a1" fill-opacity="1"></use></g><g><use xlink:href="#d4VKFwcly" opacity="1" fill="#3353a1" fill-opacity="1"></use></g><g><use xlink:href="#a1ARHnliit" opacity="1" fill="#3353a1" fill-opacity="1"></use></g><g><use xlink:href="#c71clrTriV" opacity="1" fill="#3353a1" fill-opacity="1"></use></g><g><use xlink:href="#d4eVA3L8cS" opacity="1" fill="#3353a1" fill-opacity="1"></use></g><g><use xlink:href="#d1vt4ZfxuH" opacity="1" fill="#3353a1" fill-opacity="1"></use></g><g><use xlink:href="#d4mvY8o1b" opacity="1" fill="#3353a1" fill-opacity="1"></use></g><g><use xlink:href="#cCTdhWth" opacity="1" fill="#3353a1" fill-opacity="1"></use></g><g><use xlink:href="#f18j7Z1QqD" opacity="1" fill="#3353a1" fill-opacity="1"></use></g><g><use xlink:href="#d2TN3vEP4p" opacity="1" fill="#3353a1" fill-opacity="1"></use></g><g><use xlink:href="#f1BZS489aI" opacity="1" fill="#3353a1" fill-opacity="1"></use></g><g><use xlink:href="#a4lP1bgqT2" opacity="1" fill="#3353a1" fill-opacity="1"></use></g><g><use xlink:href="#e1jhVYoALV" opacity="1" fill="#3353a1" fill-opacity="1"></use></g><g><use xlink:href="#boK9nINfb" opacity="1" fill="#3353a1" fill-opacity="1"></use></g><g><use xlink:href="#a20tP8JkvN" opacity="1" fill="#3353a1" fill-opacity="1"></use></g><g><use xlink:href="#i1UZGQdBHH" opacity="1" fill="#3353a1" fill-opacity="1"></use></g><g><use xlink:href="#crovTD4Je" opacity="1" fill="#3353a1" fill-opacity="1"></use></g><g><use xlink:href="#a2jOEEKFaf" opacity="1" fill="#3353a1" fill-opacity="1"></use></g><g><use xlink:href="#agQQGS2W3" opacity="1" fill="#3353a1" fill-opacity="1"></use></g><g><use xlink:href="#l60l9PBfmu" opacity="1" fill="#3353a1" fill-opacity="1"></use></g><g><use xlink:href="#b2fG46zpw" opacity="1" fill="#3353a1" fill-opacity="1"></use></g><g><use xlink:href="#b1W2zHTpaR" opacity="1" fill="#3353a1" fill-opacity="1"></use></g><g><use xlink:href="#dZjoXabGj" opacity="1" fill="#3353a1" fill-opacity="1"></use></g><g><use xlink:href="#g3JiF4i4Bj" opacity="1" fill="#3353a1" fill-opacity="1"></use></g><g><use xlink:href="#cF7jVmhVg" opacity="1" fill="#3353a1" fill-opacity="1"></use></g><g><use xlink:href="#k44b3QXabW" opacity="1" fill="#3353a1" fill-opacity="1"></use></g><g><use xlink:href="#j3watqNdwq" opacity="1" fill="#3353a1" fill-opacity="1"></use></g><g><use xlink:href="#a4XRGtVN4N" opacity="1" fill="#3353a1" fill-opacity="1"></use></g><g><use xlink:href="#c3lq0VwbUt" opacity="1" fill="#3353a1" fill-opacity="1"></use></g><g><use xlink:href="#cvO8HoZ3j" opacity="1" fill="#3353a1" fill-opacity="1"></use></g><g><use xlink:href="#a2egJ52Te6" opacity="1" fill="#3353a1" fill-opacity="1"></use></g><g><use xlink:href="#j2jnsKB2YK" opacity="1" fill="#3353a1" fill-opacity="1"></use></g><g><use xlink:href="#arlSWQdtv" opacity="1" fill="#d4eac4" fill-opacity="1"></use></g><g><use xlink:href="#b5sT319meV" opacity="1" fill="#3353a1" fill-opacity="1"></use></g></g></g></svg>